<?xml version="1.0" standalone="no"?>
<!DOCTYPE svg PUBLIC "-//W3C//DTD SVG 20010904//EN"
 "http://www.w3.org/TR/2001/REC-SVG-20010904/DTD/svg10.dtd">
<svg version="1.0" xmlns="http://www.w3.org/2000/svg"
 width="1522.000000pt" height="1522.000000pt" viewBox="0 0 1522.000000 1522.000000"
 preserveAspectRatio="xMidYMid meet">
<metadata>
Created by potrace 1.11, written by Peter Selinger 2001-2013
</metadata>
<g transform="translate(0.000000,1522.000000) scale(0.100000,-0.100000)"
fill="#000000" stroke="none">
<path d="M6216 14735 c-53 -21 -94 -51 -134 -95 -7 -8 -25 -40 -40 -70 l-27
-55 0 -1425 0 -1425 27 -55 c42 -88 105 -145 193 -175 45 -15 171 -16 1441
-17 1543 0 1455 -4 1546 65 51 39 103 113 119 170 14 48 20 2729 6 2831 -14
115 -98 217 -210 256 -56 20 -84 20 -1459 20 l-1403 -1 -59 -24z"/>
<path d="M5058 11145 c-2 -2 -28 -7 -58 -10 -30 -2 -66 -7 -80 -10 -106 -21
-96 -19 -150 -34 -362 -101 -676 -337 -888 -666 -63 -99 -183 -393 -184 -452
0 -2 -6 -30 -14 -62 -55 -237 -23 -587 77 -839 29 -73 99 -211 137 -270 135
-211 379 -428 609 -542 80 -39 254 -103 314 -115 195 -39 85 -37 2834 -38
1447 -1 2661 2 2698 6 155 17 333 67 476 134 323 151 589 420 740 745 63 134
92 235 126 428 10 57 14 334 5 381 -5 24 -11 64 -15 89 -17 123 -73 288 -147
432 -166 326 -479 605 -816 728 -85 31 -213 66 -278 75 -21 4 -50 9 -64 13
-26 6 -5316 13 -5322 7z"/>
<path d="M1825 7898 c-1110 -1112 -1577 -1585 -1614 -1638 -93 -132 -160 -285
-187 -425 -2 -11 -8 -42 -13 -70 -12 -63 -7 -292 9 -368 28 -143 90 -291 173
-417 39 -60 480 -506 2133 -2160 1411 -1411 2108 -2102 2157 -2136 201 -143
410 -209 662 -207 190 1 368 43 507 121 19 11 46 26 59 34 64 36 175 127 240
196 82 88 131 157 182 257 33 66 101 245 92 245 -2 0 0 14 5 31 21 72 29 240
17 355 -21 211 -131 463 -266 607 -20 22 -766 769 -1658 1662 l-1621 1622
1119 1119 c1061 1061 1117 1119 1091 1126 -14 4 -40 10 -57 13 -278 46 -567
180 -806 373 -104 84 -250 239 -332 353 -77 107 -192 332 -237 463 -31 92 -80
310 -82 371 -1 19 -3 35 -6 35 -3 0 -708 -703 -1567 -1562z"/>
<path d="M11949 9308 c-2 -21 -1 -18 -18 -84 -7 -29 -13 -58 -15 -65 -4 -26
-38 -124 -68 -199 -227 -560 -723 -972 -1310 -1090 -32 -6 -103 -17 -159 -23
l-102 -12 1113 -1113 1113 -1114 -1665 -1666 c-1540 -1542 -1668 -1673 -1715
-1752 -119 -198 -168 -365 -172 -587 -11 -559 406 -1041 969 -1121 89 -12 278
-6 365 12 184 38 355 120 494 236 100 83 4149 4140 4201 4208 90 120 180 321
205 457 24 139 23 331 -5 435 -5 19 -11 46 -14 60 -15 84 -78 224 -151 338
-50 77 -235 265 -1561 1592 -943 944 -1504 1498 -1505 1488z"/>
</g>
</svg>
