<?xml version="1.0" encoding="UTF-8"?>
<svg width="761px" height="715px" viewBox="0 0 761 715" version="1.1" xmlns="http://www.w3.org/2000/svg" xmlns:xlink="http://www.w3.org/1999/xlink">
    <!-- Generator: Sketch 43.2 (39069) - http://www.bohemiancoding.com/sketch -->
    <title>src.parts logo</title>
    <desc>Created with Sketch.</desc>
    <defs>
        <polygon id="path-1" points="312.7595 450 0.00025 450 0.00025 0.3454 312.7595 0.3454"></polygon>
        <polygon id="path-3" points="313.179 0.4685 313.179 442.9995 0.4196 442.9995 0.4196 0.4685 313.179 0.4685"></polygon>
    </defs>
    <g id="Page-1" stroke="none" stroke-width="1" fill="none" fill-rule="evenodd">
        <g id="src.parts-logo">
            <g id="Page-1">
                <path d="M560.9877,256.7226 C560.9877,288.5436 535.1997,314.3426 503.3677,314.3426 C471.5357,314.3426 445.7467,288.5436 445.7467,256.7226 C445.7467,224.9006 471.5357,199.1016 503.3677,199.1016 C535.1997,199.1016 560.9877,224.9006 560.9877,256.7226" id="Fill-1" fill="#221F20"></path>
                <path d="M560.9877,256.7226 C560.9877,288.5436 535.1997,314.3426 503.3677,314.3426 C471.5357,314.3426 445.7467,288.5436 445.7467,256.7226 C445.7467,224.9006 471.5357,199.1016 503.3677,199.1016 C535.1997,199.1016 560.9877,224.9006 560.9877,256.7226 Z" id="Stroke-3" stroke="#221F20"></path>
                <path d="M314.4429,256.7226 C314.4429,288.5436 288.6429,314.3426 256.8219,314.3426 C225.0009,314.3426 199.1919,288.5436 199.1919,256.7226 C199.1919,224.9006 225.0009,199.1016 256.8219,199.1016 C288.6429,199.1016 314.4429,224.9006 314.4429,256.7226" id="Fill-5" fill="#221F20"></path>
                <path d="M314.4429,256.7226 C314.4429,288.5436 288.6429,314.3426 256.8219,314.3426 C225.0009,314.3426 199.1919,288.5436 199.1919,256.7226 C199.1919,224.9006 225.0009,199.1016 256.8219,199.1016 C288.6429,199.1016 314.4429,224.9006 314.4429,256.7226 Z" id="Stroke-7" stroke="#221F20"></path>
                <path d="M258.9418,332.8191 C216.9228,332.8191 182.8348,298.7521 182.8348,256.7231 C182.8348,214.7021 216.9228,180.6261 258.9418,180.6261 L509.3278,180.6261 C551.3568,180.6261 585.4338,214.7021 585.4338,256.7231 C585.4338,298.7521 551.3568,332.8191 509.3278,332.8191 L258.9418,332.8191 Z" id="Fill-9" fill="#221F20"></path>
                <path d="M509.3275,180.6262 C551.3575,180.6262 585.4335,214.7022 585.4335,256.7222 C585.4335,298.7522 551.3575,332.8192 509.3275,332.8192 L258.9415,332.8192 C216.9225,332.8192 182.8345,298.7522 182.8345,256.7222 C182.8345,214.7022 216.9225,180.6262 258.9415,180.6262 L509.3275,180.6262" id="Fill-11" fill="#FFFFFF"></path>
                <path d="M467.6747,150.9546 C467.6747,159.8616 460.4667,167.0696 451.5697,167.0696 L316.7087,167.0696 C307.8227,167.0696 300.5937,159.8616 300.5937,150.9546 L300.5937,16.1046 C300.5937,7.2086 307.8227,0.0006 316.7087,0.0006 L451.5697,0.0006 C460.4667,0.0006 467.6747,7.2086 467.6747,16.1046 L467.6747,150.9546 Z" id="Fill-13" fill="#FFFFFF"></path>
                <g id="Group-17" transform="translate(0.000000, 264.393000)">
                    <mask id="mask-2" fill="white">
                        <use xlink:href="#path-1"></use>
                    </mask>
                    <g id="Clip-16"></g>
                    <path d="M169.6985,0.3454 L16.3825,153.6394 C-5.4605,175.4834 -5.4605,210.9034 16.3825,232.7584 L217.2685,433.6114 C228.1795,444.5444 242.5015,450.0004 256.8115,450.0004 C271.1435,450.0004 285.4545,444.5444 296.3765,433.6114 C318.2205,411.7784 318.2205,376.3584 296.3765,354.5144 L135.0765,193.2034 L247.1595,81.1104 C205.9065,75.6544 173.4235,42.1134 169.6985,0.3454" id="Fill-15" fill="#FFFFFF" mask="url(#mask-2)"></path>
                </g>
                <g id="Group-20" transform="translate(447.000000, 271.393000)">
                    <mask id="mask-4" fill="white">
                        <use xlink:href="#path-3"></use>
                    </mask>
                    <g id="Clip-19"></g>
                    <path d="M296.7966,146.6395 L150.6146,0.4685 C143.6266,41.2915 108.9836,72.7155 66.6806,74.7505 L178.1246,186.2035 L16.8026,347.5145 C-5.0414,369.3585 -5.0414,404.7785 16.8026,426.6115 C27.7356,437.5445 42.0466,442.9995 56.3676,442.9995 C70.6786,442.9995 84.9996,437.5445 95.9106,426.6115 L296.7966,225.7585 C318.6406,203.9035 318.6406,168.4835 296.7966,146.6395" id="Fill-18" fill="#FFFFFF" mask="url(#mask-4)"></path>
                </g>
            </g>
        </g>
    </g>
</svg>